<?xml version="1.0" encoding="UTF-8" standalone="no"?>
<!-- Created with Inkscape (http://www.inkscape.org/) -->

<svg
   xmlns:dc="http://purl.org/dc/elements/1.1/"
   xmlns:cc="http://creativecommons.org/ns#"
   xmlns:rdf="http://www.w3.org/1999/02/22-rdf-syntax-ns#"
   xmlns:svg="http://www.w3.org/2000/svg"
   xmlns="http://www.w3.org/2000/svg"
   xmlns:sodipodi="http://sodipodi.sourceforge.net/DTD/sodipodi-0.dtd"
   xmlns:inkscape="http://www.inkscape.org/namespaces/inkscape"
   width="170.42445mm"
   height="181.491mm"
   viewBox="0 0 170.42445 181.491"
   version="1.1"
   id="svg8"
   inkscape:version="0.92.4 (5da689c313, 2019-01-14)"
   sodipodi:docname="6.svg">
  <defs
     id="defs2" />
  <sodipodi:namedview
     id="base"
     pagecolor="#ffffff"
     bordercolor="#666666"
     borderopacity="1.0"
     inkscape:pageopacity="0.0"
     inkscape:pageshadow="2"
     inkscape:zoom="0.49497475"
     inkscape:cx="25.559693"
     inkscape:cy="134.9292"
     inkscape:document-units="mm"
     inkscape:current-layer="layer1"
     showgrid="false"
     inkscape:window-width="1920"
     inkscape:window-height="1017"
     inkscape:window-x="2552"
     inkscape:window-y="-8"
     inkscape:window-maximized="1"
     fit-margin-top="0"
     fit-margin-left="0"
     fit-margin-right="0"
     fit-margin-bottom="0" />
  <metadata
     id="metadata5">
    <rdf:RDF>
      <cc:Work
         rdf:about="">
        <dc:format>image/svg+xml</dc:format>
        <dc:type
           rdf:resource="http://purl.org/dc/dcmitype/StillImage" />
        <dc:title></dc:title>
      </cc:Work>
    </rdf:RDF>
  </metadata>
  <g
     inkscape:label="Layer 1"
     inkscape:groupmode="layer"
     id="layer1"
     transform="translate(-19.447022,-9.4666359)">
    <circle
       style="fill:#f0f06e;fill-opacity:0;stroke:#000000;stroke-width:2.79999995;stroke-linecap:round;stroke-linejoin:round;stroke-miterlimit:4;stroke-dasharray:none;stroke-dashoffset:0;stroke-opacity:0.94148943"
       id="path817"
       cx="34.745037"
       cy="175.65962"
       r="13.898015" />
    <circle
       style="fill:#f0f06e;fill-opacity:0;stroke:#000000;stroke-width:2.79999995;stroke-linecap:round;stroke-linejoin:round;stroke-miterlimit:4;stroke-dasharray:none;stroke-dashoffset:0;stroke-opacity:0.94148949"
       id="path819"
       cx="60.135643"
       cy="140.64732"
       r="19.510675" />
    <path
       style="fill:none;stroke:#000000;stroke-width:2.79999995;stroke-linecap:butt;stroke-linejoin:miter;stroke-miterlimit:4;stroke-dasharray:none;stroke-opacity:0.9414896"
       d="m 76.439085,104.56593 c 0,0 -30.468727,1e-5 -36.883195,-16.036163 -7.17434,-17.935851 16.036172,-26.726952 16.036172,-26.726952 0,0 -16.89244,-14.858168 -11.22532,-26.192412 7.483546,-14.967095 33.141419,-11.22532 33.141419,-11.22532 0,0 14.432557,-17.105251 34.210499,-12.828939 19.77795,4.276313 29.93419,16.57071 29.93419,16.57071 0,0 32.60688,-4.81085 41.1595,13.363477 8.55263,18.174329 -7.48354,31.537803 -7.48354,31.537803 0,0 18.17432,19.777946 11.75986,35.279576 -6.41447,15.50164 -46.50491,1.60361 -46.50491,1.60361 0,0 -5.34538,20.84703 -31.53779,19.77795 C 82.853553,128.6202 76.439085,104.56593 76.439085,104.56593 Z"
       id="path821"
       inkscape:connector-curvature="0"
       sodipodi:nodetypes="cscscscscscsc" />
  </g>
</svg>
