<?xml version="1.0" encoding="UTF-8" standalone="no"?>
<!-- Created with Inkscape (http://www.inkscape.org/) -->

<svg
   xmlns:dc="http://purl.org/dc/elements/1.1/"
   xmlns:cc="http://creativecommons.org/ns#"
   xmlns:rdf="http://www.w3.org/1999/02/22-rdf-syntax-ns#"
   xmlns:svg="http://www.w3.org/2000/svg"
   xmlns="http://www.w3.org/2000/svg"
   xmlns:sodipodi="http://sodipodi.sourceforge.net/DTD/sodipodi-0.dtd"
   xmlns:inkscape="http://www.inkscape.org/namespaces/inkscape"
   width="167.58333mm"
   height="175.15892mm"
   viewBox="0 0 167.58333 175.15892"
   version="1.1"
   id="svg3689"
   inkscape:version="0.92.4 (5da689c313, 2019-01-14)"
   sodipodi:docname="4.svg">
  <defs
     id="defs3683" />
  <sodipodi:namedview
     id="base"
     pagecolor="#ffffff"
     bordercolor="#666666"
     borderopacity="1.0"
     inkscape:pageopacity="0.0"
     inkscape:pageshadow="2"
     inkscape:zoom="0.7"
     inkscape:cx="129.38746"
     inkscape:cy="122.21921"
     inkscape:document-units="mm"
     inkscape:current-layer="layer1"
     showgrid="false"
     fit-margin-top="0"
     fit-margin-left="0"
     fit-margin-right="0"
     fit-margin-bottom="0"
     inkscape:window-width="1920"
     inkscape:window-height="1017"
     inkscape:window-x="2552"
     inkscape:window-y="-8"
     inkscape:window-maximized="1" />
  <metadata
     id="metadata3686">
    <rdf:RDF>
      <cc:Work
         rdf:about="">
        <dc:format>image/svg+xml</dc:format>
        <dc:type
           rdf:resource="http://purl.org/dc/dcmitype/StillImage" />
        <dc:title></dc:title>
      </cc:Work>
    </rdf:RDF>
  </metadata>
  <g
     inkscape:label="Layer 1"
     inkscape:groupmode="layer"
     id="layer1"
     transform="translate(-27.420513,-7.4798611)">
    <path
       sodipodi:nodetypes="cssssc"
       inkscape:connector-curvature="0"
       id="path4242"
       d="m 28.840133,162.2367 c 0,0 -1.368392,-21.33848 17.112429,-35.32462 18.480821,-13.98614 33.190751,1.17303 46.200109,-10.45943 11.556759,-10.33359 -3.575687,-22.732955 17.768419,-45.08902 16.26646,-17.037682 29.48619,1.237092 47.48303,-17.243188 14.77572,-15.172638 2.42481,-26.362816 13.39292,-45.9567494"
       style="fill:none;stroke:#000000;stroke-width:2.79999995;stroke-linecap:round;stroke-linejoin:round;stroke-miterlimit:4;stroke-dasharray:none;stroke-opacity:1" />
    <path
       style="fill:none;stroke:#000000;stroke-width:2.79999995;stroke-linecap:round;stroke-linejoin:round;stroke-miterlimit:4;stroke-dasharray:none;stroke-opacity:1"
       d="m 35.789141,168.11663 c 0,0 -1.368392,-21.33848 17.112429,-35.32462 18.480821,-13.98614 33.190751,1.17303 46.200109,-10.45943 11.556761,-10.33359 -3.575687,-22.732955 17.768421,-45.08902 16.26646,-17.037682 29.48619,1.237092 47.48303,-17.243188 14.77572,-15.172638 2.42481,-26.362816 13.39292,-45.95675"
       id="path4244"
       inkscape:connector-curvature="0"
       sodipodi:nodetypes="cssssc" />
    <path
       sodipodi:nodetypes="cssssc"
       inkscape:connector-curvature="0"
       id="path4246"
       d="m 38.461836,171.32386 c 0,0 -1.368392,-21.33848 17.112429,-35.32462 18.480821,-13.98614 33.190751,1.17303 46.200105,-10.45943 11.55677,-10.33359 -3.575683,-22.73295 17.76843,-45.089016 16.26646,-17.037682 29.48619,1.237092 47.48303,-17.243188 14.77572,-15.172638 2.42481,-26.362816 13.39292,-45.95675"
       style="fill:none;stroke:#000000;stroke-width:2.79999995;stroke-linecap:round;stroke-linejoin:round;stroke-miterlimit:4;stroke-dasharray:none;stroke-opacity:1" />
    <path
       style="fill:none;stroke:#000000;stroke-width:2.79999995;stroke-linecap:round;stroke-linejoin:round;stroke-miterlimit:4;stroke-dasharray:none;stroke-opacity:1"
       d="m 48.618078,179.34195 c 0,0 -1.368392,-21.33848 17.112429,-35.32462 18.480821,-13.98614 33.190747,1.17303 46.200103,-10.45943 11.55677,-10.33359 -3.57568,-22.73295 17.76843,-45.08902 16.26646,-17.037682 29.48619,1.237092 47.48303,-17.243188 14.77572,-15.172638 2.42481,-26.362816 13.39292,-45.95675"
       id="path4248"
       inkscape:connector-curvature="0"
       sodipodi:nodetypes="cssssc" />
    <path
       sodipodi:nodetypes="cssssc"
       inkscape:connector-curvature="0"
       id="path4250"
       d="m 51.825312,182.54918 c 0,0 -1.368392,-21.33848 17.112429,-35.32462 18.480821,-13.98614 33.190749,1.17303 46.200099,-10.45943 11.55677,-10.33359 -3.57568,-22.73295 17.76843,-45.089016 16.26646,-17.037682 29.48619,1.237092 47.48303,-17.243188 14.77572,-15.172638 2.42481,-26.362816 13.39292,-45.95675"
       style="fill:none;stroke:#000000;stroke-width:2.79999995;stroke-linecap:round;stroke-linejoin:round;stroke-miterlimit:4;stroke-dasharray:none;stroke-opacity:1" />
  </g>
</svg>
